<svg width="21" height="14" viewBox="0 0 21 14" fill="none" xmlns="http://www.w3.org/2000/svg">
<path d="M20.9179 6.71394C20.8916 6.644 20.1486 5.00048 18.505 3.34823C16.3108 1.1627 13.5395 0 10.4885 0C7.43753 0 4.66628 1.1627 2.47202 3.34823C0.8285 5.00048 0.0854208 6.644 0.0591945 6.71394C0.0201636 6.80203 0 6.89733 0 6.99368C0 7.09004 0.0201636 7.18533 0.0591945 7.27343C0.0854208 7.34337 0.8285 8.98688 2.47202 10.6391C4.66628 12.8247 7.43753 13.9874 10.4885 13.9874C13.5395 13.9874 16.3108 12.8247 18.505 10.6391C20.1486 8.98688 20.8916 7.34337 20.9179 7.27343C20.9569 7.18533 20.9771 7.09004 20.9771 6.99368C20.9771 6.89733 20.9569 6.80203 20.9179 6.71394ZM10.4885 3.84653C11.111 3.84653 11.7194 4.0311 12.237 4.37692C12.7545 4.72273 13.1579 5.21425 13.3961 5.78932C13.6343 6.36439 13.6966 6.99718 13.5752 7.60766C13.4538 8.21815 13.154 8.77892 12.7139 9.21906C12.2738 9.6592 11.713 9.95894 11.1025 10.0804C10.492 10.2018 9.85923 10.1395 9.28416 9.90128C8.70909 9.66308 8.21757 9.2597 7.87176 8.74215C7.52595 8.2246 7.34137 7.61613 7.34137 6.99368C7.34137 6.15901 7.67294 5.35851 8.26315 4.76831C8.85336 4.1781 9.65385 3.84653 10.4885 3.84653Z" fill="#6FCF97"/>
</svg>
