<svg width="21" height="18" viewBox="0 0 21 18" fill="none" xmlns="http://www.w3.org/2000/svg">
<path d="M17.021 13.8996C17.5401 13.5272 18.0358 13.1065 18.505 12.6391C20.1486 10.9869 20.8916 9.34337 20.9179 9.27343C20.9569 9.18533 20.9771 9.09004 20.9771 8.99368C20.9771 8.89733 20.9569 8.80203 20.9179 8.71394C20.8916 8.644 20.1486 7.00048 18.505 5.34823C16.3108 3.1627 13.5395 2 10.4885 2C8.91446 2 7.41487 2.30948 6.03054 2.90922L9.2303 6.10899C9.62346 5.93751 10.0513 5.84653 10.4885 5.84653C11.111 5.84653 11.7194 6.0311 12.237 6.37692C12.7545 6.72273 13.1579 7.21425 13.3961 7.78932C13.6343 8.36439 13.6966 8.99718 13.5752 9.60766C13.531 9.83016 13.463 10.0461 13.3732 10.2519L17.021 13.8996Z" fill="#6FCF97"/>
<path d="M7.38009 8.50141C7.35447 8.66323 7.34137 8.82778 7.34137 8.99368C7.34137 9.61613 7.52595 10.2246 7.87176 10.7422C8.21757 11.2597 8.70909 11.6631 9.28416 11.9013C9.82109 12.1237 10.4083 12.1928 10.9808 12.1021L14.2357 15.357C13.0537 15.7736 11.7968 15.9874 10.4885 15.9874C7.43753 15.9874 4.66628 14.8247 2.47202 12.6391C0.8285 10.9869 0.0854208 9.34337 0.0591945 9.27343C0.0201636 9.18533 0 9.09004 0 8.99368C0 8.89733 0.0201636 8.80203 0.0591945 8.71394C0.0854208 8.644 0.8285 7.00048 2.47202 5.34823C2.76936 5.05206 3.07731 4.77468 3.39511 4.51643L7.38009 8.50141Z" fill="#6FCF97"/>
<path d="M3 1L19 17" stroke="#6FCF97" stroke-width="2"/>
</svg>
