<svg width="11" height="11" viewBox="0 0 11 11" fill="none" xmlns="http://www.w3.org/2000/svg">
<path d="M1.70711 0.292893C1.31658 -0.0976311 0.683417 -0.0976311 0.292893 0.292893C-0.0976311 0.683417 -0.0976311 1.31658 0.292893 1.70711L1.70711 0.292893ZM8.79289 10.2071C9.18342 10.5976 9.81658 10.5976 10.2071 10.2071C10.5976 9.81658 10.5976 9.18342 10.2071 8.79289L8.79289 10.2071ZM10.2071 1.70711C10.5976 1.31658 10.5976 0.683417 10.2071 0.292893C9.81658 -0.0976311 9.18342 -0.0976311 8.79289 0.292893L10.2071 1.70711ZM0.292893 8.79289C-0.0976311 9.18342 -0.0976311 9.81658 0.292893 10.2071C0.683417 10.5976 1.31658 10.5976 1.70711 10.2071L0.292893 8.79289ZM0.292893 1.70711L8.79289 10.2071L10.2071 8.79289L1.70711 0.292893L0.292893 1.70711ZM8.79289 0.292893L0.292893 8.79289L1.70711 10.2071L10.2071 1.70711L8.79289 0.292893Z" fill="#DD8282"/>
</svg>
