<svg width="22" height="22" viewBox="0 0 22 22" fill="none" xmlns="http://www.w3.org/2000/svg">
<path d="M20.0248 14.4405C18.7085 14.4405 17.4161 14.2298 16.1913 13.8157C15.5911 13.6062 14.8534 13.7984 14.4871 14.1833L12.0696 16.0507C9.26606 14.5193 7.53912 12.7528 6.06301 9.90556L7.83424 7.49633C8.29442 7.02608 8.45947 6.33915 8.26172 5.69462C7.85523 4.43478 7.64874 3.11289 7.64874 1.76539C7.6488 0.791943 6.87486 0 5.92359 0H1.97521C1.02394 0 0.25 0.791943 0.25 1.76533C0.25 12.9229 9.12088 22 20.0248 22C20.9761 22 21.7501 21.2081 21.7501 20.2347V16.2058C21.75 15.2324 20.9761 14.4405 20.0248 14.4405Z" fill="#27AE60"/>
</svg>
